<svg id="Layer_1" data-name="Layer 1" xmlns="http://www.w3.org/2000/svg" viewBox="0 0 98.75 98.44"><title>bell-03</title><path d="M44.77,18c.06-4.2.66-8.4,6.09-8.41s6.3,4,6.09,8.36c12.91,4.7,18.77,13.8,18,27.3-.2,3.48.13,7-.06,10.48-.33,5.78-.42,11.22,6,14.34,1.12.55,2.2,3.52,1.67,4.53A6.11,6.11,0,0,1,78,77.32q-27,.29-53.92,0c-1.63,0-4.17-1.33-4.62-2.63s.7-4.2,2-4.89c5.22-2.86,6.15-7.13,5.67-12.5-.37-4.13.12-8.32-.11-12.47C26.19,31.46,32.16,22.63,44.77,18Z"/><path d="M58.92,81.81c-.72,4.9-3.31,7.53-7.93,7.56s-7.22-2.62-8-7.56Z"/></svg>