<svg id="Layer_1" data-name="Layer 1" xmlns="http://www.w3.org/2000/svg" viewBox="0 0 98.75 98.44"><title>questionaire-02</title><path d="M19.59,13.63l5.52-.27a6.82,6.82,0,0,1,.56-2.63,26,26,0,0,1,3-3.2c1,1.12,2.37,2.11,2.75,3.39.5,1.7-.18,3.74.33,5.43.35,1.16,1.87,2.74,2.85,2.72s2.45-1.61,2.8-2.79c.5-1.69-.18-3.73.33-5.42.38-1.28,1.83-2.23,2.8-3.32,1,1.07,2.34,2,2.9,3.26s-.24,2.76.21,3.92a26.47,26.47,0,0,0,2.83,4.56c1-1.44,2.39-2.76,3-4.36.51-1.31-.23-3.09.25-4.42.41-1.16,1.74-2,2.67-3,1,1,2.6,1.89,3,3.12.54,1.67-.15,3.71.32,5.43.33,1.21,1.7,2.14,2.61,3.19,1.07-1.06,2.6-1.95,3.08-3.24.55-1.46-.23-3.43.31-4.9s2-2.42,3-3.6c.93,1.14,2.17,2.17,2.68,3.48.46,1.16-.22,2.75.2,3.93a23.6,23.6,0,0,0,2.56,4.33c1.13-1.35,2.3-2.67,3.38-4.07.26-.34.22-.9.36-1.54h5.29c.11,1.25.31,2.53.31,3.8v60c0,6.28-1.71,8-8,8h-44c-6.27,0-8-1.71-8-8v-60ZM49.43,37.46c4.47,0,9,.25,13.41-.13,1.59-.13,3-1.77,4.57-2.72-1.41-1.06-2.79-3-4.24-3-9.11-.28-18.23-.26-27.34,0-1.38,0-2.71,1.77-4.06,2.72,1.41,1.06,2.75,2.89,4.25,3C40.45,37.73,45,37.46,49.43,37.46Zm.66,18c-4.81,0-9.63-.22-14.41.14-1.37.1-2.61,1.87-3.91,2.87,1.3,1,2.58,2.84,3.9,2.87q13.92.39,27.84,0c1.33,0,2.6-1.87,3.9-2.87-1.3-1-2.54-2.76-3.91-2.87C59.05,55.22,54.59,55.46,50.09,55.46Zm-5.09-6c3.14,0,6.33.3,9.41-.13,1.44-.2,2.68-1.82,4-2.79-1.27-1-2.5-2.89-3.81-3a185.18,185.18,0,0,0-18.85,0c-1.37.07-2.67,1.82-4,2.79,1.43,1,2.76,2.71,4.32,3C39,49.82,42,49.46,45,49.46Zm0,24c3,0,6,.33,8.91-.12,1.62-.25,3-1.79,4.55-2.75-1.41-1-2.78-2.93-4.25-3a175.5,175.5,0,0,0-18.35,0c-1.39.07-2.7,1.78-4,2.74,1.41,1,2.72,2.75,4.27,3,2.85.49,5.89.13,8.87.13Z"/></svg>