<svg id="Layer_1" data-name="Layer 1" xmlns="http://www.w3.org/2000/svg" viewBox="0 0 98.75 98.44"><title>signup-01</title><path d="M94.25,66.46l-4.81,3.32-6.85-8.27c3.79-5.26,4.1-5.28,9.07-.37.83.81,1.73,1.55,2.59,2.32Z"/><path d="M31.77,81.46c-5.32,0-10.65-.11-16,0-4.08.11-5.26-1.76-5.66-5.69C9.33,67.92,13,63,19.49,59.84c15.74-7.68,31.85-8.4,48.3-2.34,3.86,1.43,4.13,3.19,1.2,6C64.07,68.22,59.21,73,54.55,78a10.43,10.43,0,0,1-8.84,3.5C41.09,81.26,36.42,81.46,31.77,81.46Z"/><path d="M46.32,9.46A16,16,0,1,1,30.25,25.39v-.26a15.84,15.84,0,0,1,16-15.67Z"/><path d="M78.56,64.66l8.12,8.59c-6.38,6.35-12.6,13-19.42,19-1.82,1.6-5.49,1.09-8.39,1.56-1.5-5.61-.32-9.4,3.63-12.94C68,75.91,73,70.32,78.56,64.66Z"/></svg>