<svg id="Layer_1" data-name="Layer 1" xmlns="http://www.w3.org/2000/svg" viewBox="0 0 31.19 21.5"><defs><style>.cls-1{fill:#231f20;}</style></defs><title>ChairshareLogo</title><path class="cls-1" d="M10,10.89v8.8H7.66l-.26-.62A4.18,4.18,0,0,1,4.75,20a4.49,4.49,0,0,1-4.62-4.7,4.47,4.47,0,0,1,4.62-4.67,4.2,4.2,0,0,1,2.69,1l.31-.68ZM7.12,15.3a1.93,1.93,0,0,0-2-2,2,2,0,0,0,0,4A1.93,1.93,0,0,0,7.12,15.3Z"/><path class="cls-1" d="M11.93,10.9h3v8.8h-3Z"/><path class="cls-1" d="M22.6,10.86v2.77H21.42c-1.07,0-1.52.47-1.52,1.59V19.7h-3V10.9h2l.47,1a3,3,0,0,1,2.43-1Z"/><path class="cls-1" d="M23.23,16.81h2.92a.9.9,0,0,0,1,.94c.44,0,.86-.22.86-.68s-.66-.65-1.51-.79c-1.36-.22-3.17-.63-3.17-2.77,0-1.76,1.5-2.9,3.76-2.9s3.69,1.19,3.73,3H28c0-.57-.38-.83-.93-.83s-.81.24-.81.65.67.62,1.51.77c1.39.24,3.24.53,3.24,2.76,0,1.84-1.56,3-3.9,3S23.26,18.72,23.23,16.81Z"/></svg>