<svg id="Layer_1" data-name="Layer 1" xmlns="http://www.w3.org/2000/svg" viewBox="0 0 30 21.5"><defs><style>.cls-1{fill:#231f20;}</style></defs><title>ChairshareLogo</title><path class="cls-1" d="M10.33,10.88v8.81H8l-.26-.62A4.23,4.23,0,0,1,5.07,20a4.49,4.49,0,0,1-4.62-4.7,4.47,4.47,0,0,1,4.62-4.67,4.19,4.19,0,0,1,2.69.94l.31-.68ZM7.44,15.29a1.93,1.93,0,0,0-2-2,2,2,0,0,0,0,4A1.93,1.93,0,0,0,7.44,15.29Z"/><path class="cls-1" d="M18,10.85v2.78H16.8c-1.08,0-1.52.47-1.52,1.59V19.7h-3V10.89h2l.48,1a2.92,2.92,0,0,1,2.42-1Z"/><path class="cls-1" d="M28,16H21.45a1.71,1.71,0,0,0,1.8,1.53,1.75,1.75,0,0,0,1.59-.83h3A4.64,4.64,0,0,1,23.25,20a4.62,4.62,0,0,1-4.79-4.7,4.6,4.6,0,0,1,4.79-4.69,4.57,4.57,0,0,1,4.8,4.61A5.62,5.62,0,0,1,28,16ZM21.5,14.34h3.56A1.77,1.77,0,0,0,23.25,13,1.71,1.71,0,0,0,21.5,14.34Z"/></svg>